 <!-- 버스 -->
<svg xmlns="http://www.w3.org/2000/svg" xmlns:xlink="http://www.w3.org/1999/xlink" width="30" height="36" viewBox="0 0 30 36">
<defs>
    <clipPath id="clip-path">
        <rect id="사각형_14832" data-name="사각형 14832" width="30" height="36" transform="translate(1010 11998)" fill="#fff" stroke="#707070" stroke-width="1"/>
    </clipPath>
</defs>
<g id="마스크_그룹_6751" data-name="마스크 그룹 6751" transform="translate(-1010 -11998)" clip-path="url(#clip-path)">
    <path id="Icon_map-bus-station" data-name="Icon map-bus-station" d="M23.661,13.985H5.755a.97.97,0,0,1-.951-.958,1.246,1.246,0,0,1,.033-.258L5.79,6.114c.081-.432.47-.517.936-.517H22.693c.462,0,.855.078.935.508l.953,6.775a.989.989,0,0,1,.034.21.919.919,0,0,1-.953.894Zm-.716,7.462a1.779,1.779,0,1,1,1.821-1.783A1.8,1.8,0,0,1,22.944,21.447Zm-16.5,0a1.779,1.779,0,1,1,1.827-1.783A1.8,1.8,0,0,1,6.448,21.447ZM9.59,1.683H20.774V3.36H9.59A.839.839,0,0,1,9.59,1.683Zm15.77,2.567c-.327-1.573-1.281-2.207-2.837-2.84A25.766,25.766,0,0,0,14.663.023,25.949,25.949,0,0,0,6.77,1.41c-1.556.634-2.494,1.267-2.818,2.84L2.88,13.006V25.169H4.558v1.118c0,2.237,2.8,2.237,2.8,0V25.169h13.98v1.118a1.678,1.678,0,0,0,3.355,0V25.169h1.678V13.006L25.361,4.249Z" transform="translate(1010.377 12001.006)" fill="#fff"/>
</g>
</svg>
