
<svg xmlns="http://www.w3.org/2000/svg" xmlns:xlink="http://www.w3.org/1999/xlink" width="30" height="36" viewBox="0 0 30 36">
    <defs>
        <clipPath id="clip-path">
            <rect id="사각형_14834" data-name="사각형 14834" width="30" height="36" transform="translate(1010 11998)" fill="#fff" stroke="#707070" stroke-width="1"/>
        </clipPath>
    </defs>
    <g id="마스크_그룹_6753" data-name="마스크 그룹 6753" transform="translate(-1010 -11998)" clip-path="url(#clip-path)">
        <path id="Icon_awesome-car-alt" data-name="Icon awesome-car-alt" d="M23.532,12.457l-.6-1.507L21.86,8.277A5.979,5.979,0,0,0,16.282,4.5H9.468A5.98,5.98,0,0,0,3.89,8.277L2.821,10.95l-.6,1.507A3.426,3.426,0,0,0,0,15.658v2.575a3.405,3.405,0,0,0,.858,2.249v2.9A1.717,1.717,0,0,0,2.575,25.1H4.292a1.717,1.717,0,0,0,1.717-1.717V21.667H19.742v1.717A1.717,1.717,0,0,0,21.458,25.1h1.717a1.717,1.717,0,0,0,1.717-1.717v-2.9a3.4,3.4,0,0,0,.858-2.249V15.658A3.426,3.426,0,0,0,23.532,12.457ZM7.077,9.552A2.575,2.575,0,0,1,9.468,7.933h6.813a2.575,2.575,0,0,1,2.391,1.618l1.069,2.673H6.008L7.077,9.552ZM4.292,18.223a1.619,1.619,0,0,1-1.717-1.711A1.619,1.619,0,0,1,4.292,14.8a3.3,3.3,0,0,1,2.575,2.567C6.867,18.394,5.322,18.223,4.292,18.223Zm17.167,0c-1.03,0-2.575.171-2.575-.856A3.3,3.3,0,0,1,21.458,14.8a1.619,1.619,0,0,1,1.717,1.711A1.619,1.619,0,0,1,21.458,18.223Z" transform="translate(1012.125 12001.2)" fill="#fff"/>
    </g>
</svg>