<svg xmlns="http://www.w3.org/2000/svg" xmlns:xlink="http://www.w3.org/1999/xlink" width="30" height="36" viewBox="0 0 30 36">
    <defs>
        <clipPath id="clip-path">
            <rect id="사각형_14823" data-name="사각형 14823" width="30" height="36" transform="translate(1010 11998)" fill="#fff" stroke="#707070" stroke-width="1"/>
        </clipPath>
    </defs>
    <g id="마스크_그룹_6747" data-name="마스크 그룹 6747" transform="translate(-1010 -11998)" clip-path="url(#clip-path)">
        <g id="Icon_ionic-ios-subway" data-name="Icon ionic-ios-subway" transform="translate(1007.25 11998)">
            <path id="패스_129091" data-name="패스 129091" d="M24.35,2.25H11.15a4.426,4.426,0,0,0-4.4,4.426V22.721a4.426,4.426,0,0,0,4.4,4.426h13.2a4.426,4.426,0,0,0,4.4-4.426V6.676A4.426,4.426,0,0,0,24.35,2.25ZM13.9,3.91h7.7a.553.553,0,0,1,0,1.107H13.9a.553.553,0,0,1,0-1.107ZM11.7,24.934A1.936,1.936,0,1,1,13.625,23,1.928,1.928,0,0,1,11.7,24.934Zm12.1,0A1.936,1.936,0,1,1,25.725,23,1.928,1.928,0,0,1,23.8,24.934Zm2.75-10.512a1.107,1.107,0,0,1-1.1,1.107H10.064A1.118,1.118,0,0,1,8.95,14.422V7.8a1.13,1.13,0,0,1,1.114-1.12H25.45a1.119,1.119,0,0,1,1.1,1.12Z" transform="translate(0 0)" fill="#fff"/>
            <path id="패스_129092" data-name="패스 129092" d="M27.224,32.005,23.79,28.677a.951.951,0,0,0-1.36.028.974.974,0,0,0,.027,1.373l.419.409H12.651l.419-.409A.974.974,0,0,0,13.1,28.7a.951.951,0,0,0-1.36-.028L8.3,32.005a.974.974,0,0,0-.027,1.373.936.936,0,0,0,.694.3.953.953,0,0,0,.666-.27l1.01-.978H24.875l1.01.978a.953.953,0,0,0,.666.27.936.936,0,0,0,.694-.3A.967.967,0,0,0,27.224,32.005Z" transform="translate(-0.017 -0.427)" fill="#fff"/>
        </g>
    </g>
</svg>